# xmcd CD database file
#
# Track frame offsets:
#	150
#	10250
#	20632
#	33477
#	46915
#	56277
#	71517
#	80445
#	91735
#	105370
#	117802
#	133610
#	144752
#	159025
#	174125
#	186147
#	201300
#	217502
#
# Disc length: 3087 seconds
#
# Revision: 3
# Processed by: cddbd v1.5.1PL2 Copyright (c) Steve Scherf et al.
# Submitted via: CDex 1.51
#
DISCID=d30c0d12
DTITLE=Carmen Miranda - South American Way
DYEAR=1995
DGENRE=Movie music - Excerpts
TTITLE0=Yi, Yi, Yi, Yi (I Like You Very Much)
TTITLE1=Chica Chica Bun Chic
TTITLE2=South American Way
TTITLE3=Moleque Indigesto
TTITLE4=Burucuntum
TTITLE5=Mulato de Qualidade
TTITLE6=O Meu Amor Tem
TTITLE7=Ninho Deserto
TTITLE8=Good Bye
TTITLE9=Perdi Minha Mascote
TTITLE10=2 x 2
TTITLE11=Sapatinho da Vida
TTITLE12=As Cinco estacoes do Ano
TTITLE13=Recadinho de Papai Noel
TTITLE14=Sapateia no Chao
TTITLE15=Pra Voce Gostar de Mim (Tai)
TTITLE16=Anoiteceu
TTITLE17=Amor! Amor!
EXTD=YEAR: 1995
EXTT0=
EXTT1=
EXTT2=
EXTT3=
EXTT4=
EXTT5=
EXTT6=
EXTT7=
EXTT8=
EXTT9=
EXTT10=
EXTT11=
EXTT12=
EXTT13=
EXTT14=
EXTT15=
EXTT16=
EXTT17=
PLAYORDER=
